<svg width="290" height="50" viewBox="0 0 290 50" fill="none" xmlns="http://www.w3.org/2000/svg">
<circle cx="25" cy="25" r="25" fill="url(#paint0_linear_2:118)"/>
<circle cx="105" cy="25" r="25" fill="url(#paint1_linear_2:118)"/>
<circle cx="185" cy="25" r="25" fill="url(#paint2_linear_2:118)"/>
<circle cx="265" cy="25" r="25" fill="url(#paint3_linear_2:118)"/>
<path d="M115.057 19.9451C114.938 19.5012 114.704 19.0964 114.379 18.7713C114.054 18.4462 113.649 18.2121 113.205 18.0926C111.57 17.6501 105 17.6501 105 17.6501C105 17.6501 98.43 17.6501 96.795 18.0926C96.351 18.2121 95.9462 18.4462 95.6211 18.7713C95.296 19.0964 95.062 19.5012 94.9425 19.9451C94.6372 21.6126 94.4891 23.305 94.5 25.0001C94.4891 26.6953 94.6372 28.3877 94.9425 30.0551C95.062 30.4991 95.296 30.9039 95.6211 31.229C95.9462 31.5541 96.351 31.7881 96.795 31.9076C98.43 32.3501 105 32.3501 105 32.3501C105 32.3501 111.57 32.3501 113.205 31.9076C113.649 31.7881 114.054 31.5541 114.379 31.229C114.704 30.9039 114.938 30.4991 115.057 30.0551C115.363 28.3877 115.511 26.6953 115.5 25.0001C115.511 23.305 115.363 21.6126 115.057 19.9451ZM102.9 28.1501V21.8501L108.352 25.0001L102.9 28.1501Z" fill="white"/>
<g clip-path="url(#clip0_2:118)">
<path fill-rule="evenodd" clip-rule="evenodd" d="M34.3624 27.7577C34.3624 27.7577 36.3028 29.6741 36.7828 30.5609C36.7922 30.5736 36.7994 30.5878 36.8044 30.6029C37 30.9305 37.048 31.1873 36.952 31.3769C36.79 31.6901 36.2416 31.8473 36.0556 31.8605H32.626C32.3872 31.8605 31.8904 31.7981 31.2856 31.3805C30.8236 31.0577 30.364 30.5261 29.9188 30.0065C29.254 29.2349 28.6792 28.5653 28.0972 28.5653C28.0237 28.5651 27.9507 28.5773 27.8812 28.6013C27.4408 28.7405 26.8816 29.3681 26.8816 31.0397C26.8816 31.5629 26.4688 31.8605 26.1796 31.8605H24.6088C24.0736 31.8605 21.2872 31.6733 18.8164 29.0681C15.7888 25.8785 13.0696 19.48 13.0432 19.4236C12.874 19.0096 13.2292 18.784 13.6132 18.784H17.0764C17.5408 18.784 17.692 19.0648 17.7976 19.3168C17.92 19.606 18.3736 20.7628 19.1176 22.0624C20.3224 24.1768 21.0628 25.0373 21.6544 25.0373C21.7656 25.0376 21.8748 25.0086 21.9712 24.9533C22.744 24.5285 22.6 21.7684 22.564 21.1996C22.564 21.0892 22.5628 19.9672 22.1668 19.4248C21.8836 19.036 21.4012 18.8848 21.1096 18.8296C21.1876 18.7168 21.3532 18.544 21.5656 18.442C22.0948 18.178 23.0512 18.1396 24.0004 18.1396H24.5272C25.5568 18.154 25.8232 18.22 26.1976 18.3148C26.9512 18.4948 26.9656 18.9832 26.8996 20.6464C26.8804 21.1216 26.86 21.6568 26.86 22.2868C26.86 22.4212 26.854 22.5712 26.854 22.7236C26.8312 23.5768 26.8012 24.5381 27.4036 24.9329C27.4818 24.9815 27.572 25.0073 27.664 25.0072C27.8728 25.0072 28.498 25.0072 30.1936 22.0972C30.9376 20.812 31.5136 19.2964 31.5532 19.1824C31.5868 19.1188 31.6876 18.94 31.81 18.868C31.8971 18.8217 31.9946 18.7986 32.0932 18.8008H36.1672C36.6112 18.8008 36.9124 18.868 36.9712 19.036C37.0696 19.3084 36.952 20.14 35.092 22.6552C34.7788 23.074 34.504 23.4365 34.2628 23.7533C32.5768 25.9661 32.5768 26.0777 34.3624 27.7577Z" fill="white"/>
</g>
<path d="M186.397 33.9969V25.8009H189.162L189.573 22.5919H186.397V20.5479C186.397 19.6219 186.655 18.9879 187.984 18.9879H189.668V16.1269C188.849 16.0391 188.025 15.9967 187.201 15.9999C184.757 15.9999 183.079 17.4919 183.079 20.2309V22.5859H180.332V25.7949H183.085V33.9969H186.397Z" fill="white"/>
<path d="M269.5 13H260.5C256.359 13 253 16.3585 253 20.5V29.5C253 33.6415 256.359 37 260.5 37H269.5C273.642 37 277 33.6415 277 29.5V20.5C277 16.3585 273.642 13 269.5 13ZM274.75 29.5C274.75 32.395 272.395 34.75 269.5 34.75H260.5C257.605 34.75 255.25 32.395 255.25 29.5V20.5C255.25 17.605 257.605 15.25 260.5 15.25H269.5C272.395 15.25 274.75 17.605 274.75 20.5V29.5Z" fill="white"/>
<path d="M265 19C261.686 19 259 21.6865 259 25C259 28.3135 261.686 31 265 31C268.314 31 271 28.3135 271 25C271 21.6865 268.314 19 265 19ZM265 28.75C262.933 28.75 261.25 27.067 261.25 25C261.25 22.9315 262.933 21.25 265 21.25C267.067 21.25 268.75 22.9315 268.75 25C268.75 27.067 267.067 28.75 265 28.75Z" fill="white"/>
<path d="M271.448 19.35C271.889 19.35 272.247 18.992 272.247 18.5505C272.247 18.1089 271.889 17.751 271.448 17.751C271.006 17.751 270.648 18.1089 270.648 18.5505C270.648 18.992 271.006 19.35 271.448 19.35Z" fill="white"/>
<defs>
<linearGradient id="paint0_linear_2:118" x1="5.1105" y1="-5.43152e-06" x2="48.2386" y2="3.21466" gradientUnits="userSpaceOnUse">
<stop stop-color="#C89AFC"/>
<stop offset="1" stop-color="#7C6AFA"/>
</linearGradient>
<linearGradient id="paint1_linear_2:118" x1="85.1105" y1="-5.43152e-06" x2="128.239" y2="3.21466" gradientUnits="userSpaceOnUse">
<stop stop-color="#C89AFC"/>
<stop offset="1" stop-color="#7C6AFA"/>
</linearGradient>
<linearGradient id="paint2_linear_2:118" x1="165.11" y1="-5.43152e-06" x2="208.239" y2="3.21466" gradientUnits="userSpaceOnUse">
<stop stop-color="#C89AFC"/>
<stop offset="1" stop-color="#7C6AFA"/>
</linearGradient>
<linearGradient id="paint3_linear_2:118" x1="245.11" y1="-5.43152e-06" x2="288.239" y2="3.21466" gradientUnits="userSpaceOnUse">
<stop stop-color="#C89AFC"/>
<stop offset="1" stop-color="#7C6AFA"/>
</linearGradient>
<clipPath id="clip0_2:118">
<rect x="13" y="13" width="24" height="24" fill="white"/>
</clipPath>
</defs>
</svg>
